<svg width="108" height="22" viewBox="0 0 108 22" fill="none" xmlns="http://www.w3.org/2000/svg">
<path fill-rule="evenodd" clip-rule="evenodd" d="M34.3652 6.53301C34.3652 5.89996 33.8876 5.38678 33.2985 5.38678H32.2318C31.6427 5.38678 31.1652 5.89996 31.1652 6.53301V16.467C31.1652 17.1 31.6427 17.6132 32.2318 17.6132H33.2985C33.8876 17.6132 34.3652 17.1 34.3652 16.467V6.53301ZM26.931 7.83206H27.9977C28.5868 7.83206 29.0644 8.35756 29.0644 9.0058V16.4395C29.0644 17.0877 28.5868 17.6132 27.9977 17.6132H26.931C26.3419 17.6132 25.8644 17.0877 25.8644 16.4395V9.0058C25.8644 8.35756 26.3419 7.83206 26.931 7.83206ZM22.5993 10.4811H21.5326C20.9435 10.4811 20.4659 11.0133 20.4659 11.6698V16.4245C20.4659 17.081 20.9435 17.6132 21.5326 17.6132H22.5993C23.1884 17.6132 23.6659 17.081 23.6659 16.4245V11.6698C23.6659 11.0133 23.1884 10.4811 22.5993 10.4811ZM17.2985 12.9264H16.2318C15.6427 12.9264 15.1652 13.451 15.1652 14.0981V16.4415C15.1652 17.0886 15.6427 17.6132 16.2318 17.6132H17.2985C17.8876 17.6132 18.3652 17.0886 18.3652 16.4415V14.0981C18.3652 13.451 17.8876 12.9264 17.2985 12.9264Z" fill="black"/>
<path fill-rule="evenodd" clip-rule="evenodd" d="M49.9364 7.80216C52.4236 7.80226 54.8156 8.72435 56.6181 10.3778C56.7538 10.5055 56.9708 10.5039 57.1044 10.3742L58.4019 9.11075C58.4696 9.04499 58.5074 8.95591 58.5068 8.86323C58.5062 8.77055 58.4674 8.68191 58.3989 8.61691C53.6679 4.2422 46.2042 4.2422 41.4732 8.61691C41.4047 8.68186 41.3658 8.77047 41.3652 8.86316C41.3645 8.95584 41.4022 9.04494 41.4698 9.11075L42.7677 10.3742C42.9013 10.5041 43.1184 10.5057 43.2541 10.3778C45.0568 8.72424 47.4491 7.80215 49.9364 7.80216ZM49.9331 12.0224C51.2904 12.0223 52.5993 12.5341 53.6054 13.4582C53.7415 13.5894 53.9559 13.5865 54.0885 13.4518L55.3758 12.1325C55.4436 12.0633 55.4812 11.9694 55.4802 11.8719C55.4792 11.7743 55.4398 11.6812 55.3706 11.6134C52.3068 8.7226 47.562 8.7226 44.4982 11.6134C44.429 11.6812 44.3895 11.7744 44.3886 11.8719C44.3877 11.9695 44.4254 12.0634 44.4934 12.1325L45.7803 13.4518C45.9129 13.5865 46.1273 13.5894 46.2634 13.4582C47.2688 12.5347 48.5767 12.023 49.9331 12.0224ZM52.4575 14.816C52.4594 14.9213 52.4224 15.0229 52.3551 15.0967L50.1784 17.5514C50.1146 17.6236 50.0276 17.6642 49.9368 17.6642C49.8461 17.6642 49.7591 17.6236 49.6953 17.5514L47.5182 15.0967C47.451 15.0229 47.414 14.9212 47.416 14.8159C47.418 14.7105 47.4588 14.6108 47.5288 14.5402C48.9189 13.2263 50.9548 13.2263 52.3449 14.5402C52.4148 14.6108 52.4556 14.7106 52.4575 14.816Z" fill="black"/>
<rect opacity="0.35" x="66.0068" y="5.5" width="24" height="12" rx="3.8" stroke="black"/>
<path opacity="0.4" d="M91.5068 9.78113V13.8566C92.3116 13.5114 92.8349 12.7085 92.8349 11.8189C92.8349 10.9293 92.3116 10.1263 91.5068 9.78113Z" fill="black"/>
<rect x="67.5068" y="7" width="21" height="9" rx="2.5" fill="black"/>
</svg>
