<svg width="108" height="22" viewBox="0 0 108 22" fill="none" xmlns="http://www.w3.org/2000/svg">
<path fill-rule="evenodd" clip-rule="evenodd" d="M34.3652 6.53295C34.3652 5.8999 33.8876 5.38672 33.2985 5.38672H32.2318C31.6427 5.38672 31.1652 5.8999 31.1652 6.53295V16.4669C31.1652 17.0999 31.6427 17.6131 32.2318 17.6131H33.2985C33.8876 17.6131 34.3652 17.0999 34.3652 16.4669V6.53295ZM26.931 7.832H27.9977C28.5868 7.832 29.0644 8.3575 29.0644 9.00574V16.4394C29.0644 17.0876 28.5868 17.6131 27.9977 17.6131H26.931C26.3419 17.6131 25.8644 17.0876 25.8644 16.4394V9.00574C25.8644 8.3575 26.3419 7.832 26.931 7.832ZM22.5993 10.481H21.5326C20.9435 10.481 20.4659 11.0132 20.4659 11.6697V16.4244C20.4659 17.0809 20.9435 17.6131 21.5326 17.6131H22.5993C23.1884 17.6131 23.6659 17.0809 23.6659 16.4244V11.6697C23.6659 11.0132 23.1884 10.481 22.5993 10.481ZM17.2985 12.9263H16.2318C15.6427 12.9263 15.1652 13.4509 15.1652 14.098V16.4414C15.1652 17.0885 15.6427 17.6131 16.2318 17.6131H17.2985C17.8876 17.6131 18.3652 17.0885 18.3652 16.4414V14.098C18.3652 13.4509 17.8876 12.9263 17.2985 12.9263Z" fill="black"/>
<path fill-rule="evenodd" clip-rule="evenodd" d="M49.9364 7.80222C52.4236 7.80232 54.8156 8.72441 56.6181 10.3779C56.7538 10.5055 56.9708 10.5039 57.1044 10.3743L58.4019 9.11081C58.4696 9.04505 58.5074 8.95597 58.5068 8.86329C58.5062 8.77061 58.4674 8.68197 58.3989 8.61697C53.6679 4.24226 46.2042 4.24226 41.4732 8.61697C41.4047 8.68192 41.3658 8.77054 41.3652 8.86322C41.3645 8.9559 41.4022 9.045 41.4698 9.11081L42.7677 10.3743C42.9013 10.5041 43.1184 10.5057 43.2541 10.3779C45.0568 8.7243 47.4491 7.80221 49.9364 7.80222ZM49.9331 12.0225C51.2904 12.0224 52.5993 12.5342 53.6054 13.4583C53.7415 13.5894 53.9559 13.5866 54.0885 13.4519L55.3758 12.1326C55.4436 12.0634 55.4812 11.9695 55.4802 11.8719C55.4792 11.7744 55.4398 11.6813 55.3706 11.6135C52.3068 8.72266 47.562 8.72266 44.4982 11.6135C44.429 11.6813 44.3895 11.7744 44.3886 11.872C44.3877 11.9696 44.4254 12.0635 44.4934 12.1326L45.7803 13.4519C45.9129 13.5866 46.1273 13.5894 46.2634 13.4583C47.2688 12.5348 48.5767 12.0231 49.9331 12.0225ZM52.4575 14.816C52.4594 14.9214 52.4224 15.023 52.3551 15.0968L50.1784 17.5515C50.1146 17.6236 50.0276 17.6642 49.9368 17.6642C49.8461 17.6642 49.7591 17.6236 49.6953 17.5515L47.5182 15.0968C47.451 15.0229 47.414 14.9213 47.416 14.816C47.418 14.7106 47.4588 14.6108 47.5288 14.5402C48.9189 13.2263 50.9548 13.2263 52.3449 14.5402C52.4148 14.6109 52.4556 14.7107 52.4575 14.816Z" fill="black"/>
<rect opacity="0.35" x="66.0068" y="5.5" width="24" height="12" rx="3.8" stroke="black"/>
<path opacity="0.4" d="M91.5068 9.78125V13.8567C92.3116 13.5116 92.8349 12.7086 92.8349 11.819C92.8349 10.9294 92.3116 10.1264 91.5068 9.78125Z" fill="black"/>
<rect x="67.5068" y="7" width="21" height="9" rx="2.5" fill="black"/>
</svg>
